<svg width="164" height="164" viewBox="0 0 164 164" fill="none" xmlns="http://www.w3.org/2000/svg">
<path d="M140.508 18.198L89.5029 56.0805L98.9351 33.7303L140.508 18.198Z" fill="#E2761B" stroke="#E2761B" stroke-width="0.713188" stroke-linecap="round" stroke-linejoin="round"/>
<path d="M22.7607 18.198L73.3561 56.4393L64.3853 33.7303L22.7607 18.198Z" fill="#E4761B" stroke="#E4761B" stroke-width="0.713188" stroke-linecap="round" stroke-linejoin="round"/>
<path d="M122.157 106.01L108.572 126.822L137.638 134.819L145.993 106.471L122.157 106.01Z" fill="#E4761B" stroke="#E4761B" stroke-width="0.713188" stroke-linecap="round" stroke-linejoin="round"/>
<path d="M17.3779 106.471L25.6823 134.819L54.7478 126.822L41.1634 106.01L17.3779 106.471Z" fill="#E4761B" stroke="#E4761B" stroke-width="0.713188" stroke-linecap="round" stroke-linejoin="round"/>
<path d="M53.1072 70.8438L45.0078 83.0954L73.8682 84.3769L72.843 53.3635L53.1072 70.8438Z" fill="#E4761B" stroke="#E4761B" stroke-width="0.713188" stroke-linecap="round" stroke-linejoin="round"/>
<path d="M110.161 70.8437L90.1693 53.0046L89.5029 84.3769L118.312 83.0953L110.161 70.8437Z" fill="#E4761B" stroke="#E4761B" stroke-width="0.713188" stroke-linecap="round" stroke-linejoin="round"/>
<path d="M54.748 126.822L72.0745 118.363L57.1061 106.676L54.748 126.822Z" fill="#E4761B" stroke="#E4761B" stroke-width="0.713188" stroke-linecap="round" stroke-linejoin="round"/>
<path d="M91.1953 118.363L108.573 126.822L106.164 106.676L91.1953 118.363Z" fill="#E4761B" stroke="#E4761B" stroke-width="0.713188" stroke-linecap="round" stroke-linejoin="round"/>
<path d="M108.572 126.822L91.1943 118.364L92.5784 129.692L92.4246 134.46L108.572 126.822Z" fill="#D7C1B3" stroke="#D7C1B3" stroke-width="0.713188" stroke-linecap="round" stroke-linejoin="round"/>
<path d="M54.7471 126.822L70.8945 134.46L70.792 129.692L72.0736 118.364L54.7471 126.822Z" fill="#D7C1B3" stroke="#D7C1B3" stroke-width="0.713188" stroke-linecap="round" stroke-linejoin="round"/>
<path d="M71.1511 99.1918L56.6953 94.937L66.8964 90.2722L71.1511 99.1918Z" fill="#233447" stroke="#233447" stroke-width="0.713188" stroke-linecap="round" stroke-linejoin="round"/>
<path d="M92.1172 99.1918L96.3719 90.2722L106.624 94.937L92.1172 99.1918Z" fill="#233447" stroke="#233447" stroke-width="0.713188" stroke-linecap="round" stroke-linejoin="round"/>
<path d="M54.7475 126.822L57.208 106.009L41.1631 106.471L54.7475 126.822Z" fill="#CD6116" stroke="#CD6116" stroke-width="0.713188" stroke-linecap="round" stroke-linejoin="round"/>
<path d="M106.112 106.009L108.573 126.822L122.157 106.471L106.112 106.009Z" fill="#CD6116" stroke="#CD6116" stroke-width="0.713188" stroke-linecap="round" stroke-linejoin="round"/>
<path d="M118.312 83.0952L89.5029 84.3768L92.1685 99.1914L96.4233 90.2719L106.676 94.9367L118.312 83.0952Z" fill="#CD6116" stroke="#CD6116" stroke-width="0.713188" stroke-linecap="round" stroke-linejoin="round"/>
<path d="M56.6955 94.9367L66.9479 90.2719L71.1513 99.1914L73.8682 84.3768L45.0078 83.0952L56.6955 94.9367Z" fill="#CD6116" stroke="#CD6116" stroke-width="0.713188" stroke-linecap="round" stroke-linejoin="round"/>
<path d="M45.0088 83.0952L57.1066 106.676L56.6965 94.9367L45.0088 83.0952Z" fill="#E4751F" stroke="#E4751F" stroke-width="0.713188" stroke-linecap="round" stroke-linejoin="round"/>
<path d="M106.677 94.9367L106.164 106.676L118.313 83.0952L106.677 94.9367Z" fill="#E4751F" stroke="#E4751F" stroke-width="0.713188" stroke-linecap="round" stroke-linejoin="round"/>
<path d="M73.8692 84.3767L71.1523 99.1914L74.5356 116.672L75.3045 93.6551L73.8692 84.3767Z" fill="#E4751F" stroke="#E4751F" stroke-width="0.713188" stroke-linecap="round" stroke-linejoin="round"/>
<path d="M89.5042 84.3767L88.1201 93.6038L88.7353 116.672L92.1698 99.1914L89.5042 84.3767Z" fill="#E4751F" stroke="#E4751F" stroke-width="0.713188" stroke-linecap="round" stroke-linejoin="round"/>
<path d="M92.1689 99.1917L88.7344 116.672L91.1949 118.364L106.163 106.676L106.676 94.937L92.1689 99.1917Z" fill="#F6851B" stroke="#F6851B" stroke-width="0.713188" stroke-linecap="round" stroke-linejoin="round"/>
<path d="M56.6953 94.937L57.1054 106.676L72.0739 118.364L74.5344 116.672L71.1511 99.1917L56.6953 94.937Z" fill="#F6851B" stroke="#F6851B" stroke-width="0.713188" stroke-linecap="round" stroke-linejoin="round"/>
<path d="M92.4255 134.46L92.5793 129.692L91.2977 128.565H71.972L70.793 129.692L70.8955 134.46L54.748 126.822L60.3868 131.435L71.8182 139.381H91.4515L102.934 131.435L108.573 126.822L92.4255 134.46Z" fill="#C0AD9E" stroke="#C0AD9E" stroke-width="0.713188" stroke-linecap="round" stroke-linejoin="round"/>
<path d="M91.1942 118.364L88.7336 116.672H74.5341L72.0735 118.364L70.792 129.693L71.971 128.565H91.2967L92.5783 129.693L91.1942 118.364Z" fill="#161616" stroke="#161616" stroke-width="0.713188" stroke-linecap="round" stroke-linejoin="round"/>
<path d="M142.661 58.541L147.018 37.6262L140.508 18.198L91.1943 54.7989L110.161 70.8439L136.971 78.6869L142.918 71.7666L140.354 69.9212L144.455 66.179L141.277 63.7185L145.378 60.5915L142.661 58.541Z" fill="#763D16" stroke="#763D16" stroke-width="0.713188" stroke-linecap="round" stroke-linejoin="round"/>
<path d="M16.3008 37.6262L20.658 58.541L17.8899 60.5915L21.9908 63.7185L18.8639 66.179L22.9648 69.9212L20.4017 71.7666L26.2968 78.6869L53.1068 70.8439L72.0736 54.7989L22.7598 18.198L16.3008 37.6262Z" fill="#763D16" stroke="#763D16" stroke-width="0.713188" stroke-linecap="round" stroke-linejoin="round"/>
<path d="M136.971 78.6871L110.162 70.844L118.312 83.0956L106.163 106.676L122.157 106.471H145.993L136.971 78.6871Z" fill="#F6851B" stroke="#F6851B" stroke-width="0.713188" stroke-linecap="round" stroke-linejoin="round"/>
<path d="M53.1074 70.844L26.2975 78.6871L17.3779 106.471H41.1634L57.1058 106.676L45.008 83.0956L53.1074 70.844Z" fill="#F6851B" stroke="#F6851B" stroke-width="0.713188" stroke-linecap="round" stroke-linejoin="round"/>
<path d="M89.503 84.3769L91.1947 54.7988L98.9865 33.7302H64.3848L72.074 54.7988L73.8682 84.3769L74.4833 93.7065L74.5346 116.672H88.7341L88.8366 93.7065L89.503 84.3769Z" fill="#F6851B" stroke="#F6851B" stroke-width="0.713188" stroke-linecap="round" stroke-linejoin="round"/>
</svg>
