<svg width="169" height="103" viewBox="0 0 169 103" fill="none" xmlns="http://www.w3.org/2000/svg">
<path d="M35.1064 20.2152C62.4281 -6.5392 106.738 -6.5392 134.056 20.2152L137.328 23.4332C137.653 23.7475 137.911 24.1238 138.087 24.5398C138.263 24.9558 138.354 25.403 138.354 25.8548C138.354 26.3067 138.263 26.7539 138.087 27.1699C137.911 27.5859 137.653 27.9622 137.328 28.2765L126.078 39.2939C125.746 39.6138 125.303 39.7926 124.842 39.7926C124.381 39.7926 123.938 39.6138 123.606 39.2939L119.079 34.8615C100.018 16.1974 69.1113 16.1974 50.0508 34.8615L45.2184 39.5957C44.8873 39.9173 44.4438 40.0972 43.9822 40.0972C43.5205 40.0972 43.077 39.9173 42.7459 39.5957L31.4922 28.5783C31.1675 28.264 30.9094 27.8877 30.7332 27.4717C30.5569 27.0557 30.4661 26.6085 30.4661 26.1566C30.4661 25.7048 30.5569 25.2576 30.7332 24.8416C30.9094 24.4256 31.1675 24.0493 31.4922 23.735L35.1064 20.2152ZM157.319 42.9918L167.33 52.8093C167.654 53.1236 167.912 53.4999 168.089 53.9159C168.265 54.3319 168.356 54.7791 168.356 55.2309C168.356 55.6827 168.265 56.1299 168.089 56.546C167.912 56.962 167.654 57.3383 167.33 57.6526L122.187 101.828C121.525 102.471 120.637 102.831 119.713 102.831C118.789 102.831 117.902 102.471 117.239 101.828L85.1974 70.4589C85.0318 70.2981 84.8101 70.2081 84.5793 70.2081C84.3484 70.2081 84.1267 70.2981 83.9611 70.4589L51.9198 101.828C51.2575 102.471 50.3705 102.831 49.4472 102.831C48.5239 102.831 47.637 102.471 46.9747 101.828L1.82883 57.6271C1.50422 57.3128 1.24611 56.9365 1.06984 56.5205C0.89357 56.1045 0.802734 55.6573 0.802734 55.2055C0.802734 54.7537 0.89357 54.3064 1.06984 53.8904C1.24611 53.4744 1.50422 53.0981 1.82883 52.7838L11.839 42.9663C12.5019 42.3228 13.3895 41.9629 14.3134 41.9629C15.2373 41.9629 16.1248 42.3228 16.7878 42.9663L48.8291 74.3386C48.9947 74.4995 49.2164 74.5894 49.4472 74.5894C49.6781 74.5894 49.8998 74.4995 50.0654 74.3386L82.1067 42.9663C82.769 42.3231 83.656 41.9632 84.5793 41.9632C85.5025 41.9632 86.3895 42.3231 87.0518 42.9663L119.093 74.3386C119.259 74.4995 119.48 74.5894 119.711 74.5894C119.942 74.5894 120.164 74.4995 120.329 74.3386L152.371 42.9663C153.036 42.3248 153.924 41.9675 154.848 41.9702C155.772 41.9729 156.658 42.3354 157.319 42.9809V42.9918Z" fill="#6094CE"/>
</svg>
